<?xml version="1.0" encoding="UTF-8" standalone="no"?>
<!DOCTYPE svg PUBLIC "-//W3C//DTD SVG 1.1//EN"
 "http://www.w3.org/Graphics/SVG/1.1/DTD/svg11.dtd">
<!-- Generated by graphviz version 14.1.3 (20260303.0454)
 -->
<!-- Title: dependencies Pages: 1 -->
<svg width="1811pt" height="766pt"
 viewBox="0.00 0.00 1811.00 766.00" xmlns="http://www.w3.org/2000/svg" xmlns:xlink="http://www.w3.org/1999/xlink">
<g id="graph0" class="graph" transform="scale(1 1) rotate(0) translate(4 762.16)">
<title>dependencies</title>
<polygon fill="white" stroke="none" points="-4,4 -4,-762.16 1806.82,-762.16 1806.82,4 -4,4"/>
<!-- _webgames_client -->
<g id="node1" class="node">
<title>_webgames_client</title>
<ellipse fill="none" stroke="#1d4ed8" cx="1498.07" cy="-677.52" rx="158.4" ry="80.64"/>
<text xml:space="preserve" text-anchor="start" x="1481.74" y="-692.32" font-family="Times,serif" font-weight="bold" font-size="14.00" fill="#0f172a">client</text>
<text xml:space="preserve" text-anchor="start" x="1476.41" y="-671.12" font-family="Times,serif" font-size="10.00" fill="#0f172a">apps/client</text>
<text xml:space="preserve" text-anchor="start" x="1479.32" y="-653.12" font-family="Times,serif" font-size="10.00" fill="#0f172a">674 LOC</text>
</g>
<!-- _webgames_engine -->
<g id="node3" class="node">
<title>_webgames_engine</title>
<ellipse fill="none" stroke="#047857" cx="875.07" cy="-81" rx="158.76" ry="81"/>
<text xml:space="preserve" text-anchor="start" x="855.62" y="-95.8" font-family="Times,serif" font-weight="bold" font-size="14.00" fill="#0f172a">engine</text>
<text xml:space="preserve" text-anchor="start" x="842.03" y="-74.6" font-family="Times,serif" font-size="10.00" fill="#0f172a">packages/engine</text>
<text xml:space="preserve" text-anchor="start" x="856.32" y="-56.6" font-family="Times,serif" font-size="10.00" fill="#0f172a">679 LOC</text>
</g>
<!-- _webgames_client&#45;&gt;_webgames_engine -->
<g id="edge1" class="edge">
<title>_webgames_client&#45;&gt;_webgames_engine</title>
<path fill="none" stroke="#2563eb" d="M1627.86,-631.01C1660.03,-613.8 1691.22,-590.87 1712.07,-560.88 1804.38,-428.09 1845.55,-319.73 1739.07,-198 1694.07,-146.56 1282.42,-109.96 1043.93,-92.87"/>
<polygon fill="#2563eb" stroke="#2563eb" points="1044.44,-89.39 1034.22,-92.17 1043.94,-96.38 1044.44,-89.39"/>
</g>
<!-- _webgames_game -->
<g id="node5" class="node">
<title>_webgames_game</title>
<ellipse fill="none" stroke="#c2410c" cx="1069.07" cy="-283.32" rx="166.32" ry="85.32"/>
<text xml:space="preserve" text-anchor="start" x="1053.13" y="-298.12" font-family="Times,serif" font-weight="bold" font-size="14.00" fill="#0f172a">game</text>
<text xml:space="preserve" text-anchor="start" x="1021.31" y="-276.92" font-family="Times,serif" font-size="10.00" fill="#0f172a">packages/systems/game</text>
<text xml:space="preserve" text-anchor="start" x="1050.32" y="-258.92" font-family="Times,serif" font-size="10.00" fill="#0f172a">796 LOC</text>
</g>
<!-- _webgames_client&#45;&gt;_webgames_game -->
<g id="edge2" class="edge">
<title>_webgames_client&#45;&gt;_webgames_game</title>
<path fill="none" stroke="#2563eb" d="M1391.83,-617.35C1370.77,-601.41 1350.69,-582.49 1336.07,-560.88 1296.03,-501.69 1342.04,-460.97 1298.07,-404.64 1290.46,-394.89 1246.99,-371.25 1199.94,-347.48"/>
<polygon fill="#2563eb" stroke="#2563eb" points="1201.71,-344.46 1191.2,-343.09 1198.57,-350.71 1201.71,-344.46"/>
</g>
<!-- _webgames_input -->
<g id="node6" class="node">
<title>_webgames_input</title>
<ellipse fill="none" stroke="#c2410c" cx="1391.07" cy="-283.32" rx="100.44" ry="48.65"/>
<text xml:space="preserve" text-anchor="start" x="1375.11" y="-298.12" font-family="Times,serif" font-weight="bold" font-size="14.00" fill="#0f172a">input</text>
<text xml:space="preserve" text-anchor="start" x="1343.85" y="-276.92" font-family="Times,serif" font-size="10.00" fill="#0f172a">packages/systems/input</text>
<text xml:space="preserve" text-anchor="start" x="1374.82" y="-258.92" font-family="Times,serif" font-size="10.00" fill="#0f172a">98 LOC</text>
</g>
<!-- _webgames_client&#45;&gt;_webgames_input -->
<g id="edge3" class="edge">
<title>_webgames_client&#45;&gt;_webgames_input</title>
<path fill="none" stroke="#2563eb" d="M1608.71,-619.4C1629.39,-603.39 1648.21,-583.92 1660.07,-560.88 1691.85,-499.14 1703.41,-458.89 1660.07,-404.64 1614.84,-348.03 1566.67,-399.39 1501.07,-368.64 1481.95,-359.68 1463.01,-346.95 1446.38,-334.1"/>
<polygon fill="#2563eb" stroke="#2563eb" points="1448.59,-331.38 1438.58,-327.91 1444.24,-336.86 1448.59,-331.38"/>
</g>
<!-- _webgames_network_client -->
<g id="node7" class="node">
<title>_webgames_network_client</title>
<ellipse fill="none" stroke="#c2410c" cx="1620.07" cy="-283.32" rx="110.44" ry="48.65"/>
<text xml:space="preserve" text-anchor="start" x="1576.52" y="-298.12" font-family="Times,serif" font-weight="bold" font-size="14.00" fill="#0f172a">network&#45;client</text>
<text xml:space="preserve" text-anchor="start" x="1553.98" y="-276.92" font-family="Times,serif" font-size="10.00" fill="#0f172a">packages/systems/network&#45;client</text>
<text xml:space="preserve" text-anchor="start" x="1603.82" y="-258.92" font-family="Times,serif" font-size="10.00" fill="#0f172a">95 LOC</text>
</g>
<!-- _webgames_client&#45;&gt;_webgames_network_client -->
<g id="edge4" class="edge">
<title>_webgames_client&#45;&gt;_webgames_network_client</title>
<path fill="none" stroke="#2563eb" d="M1621.56,-626.51C1648.1,-609.74 1672.74,-588.15 1688.07,-560.88 1722.09,-500.35 1705.73,-471.8 1688.07,-404.64 1682.14,-382.11 1670.93,-359.36 1659.29,-339.8"/>
<polygon fill="#2563eb" stroke="#2563eb" points="1662.39,-338.16 1654.17,-331.47 1656.43,-341.82 1662.39,-338.16"/>
</g>
<!-- _webgames_renderer -->
<g id="node10" class="node">
<title>_webgames_renderer</title>
<ellipse fill="none" stroke="#c2410c" cx="1498.07" cy="-482.76" rx="153.36" ry="78.12"/>
<text xml:space="preserve" text-anchor="start" x="1471.64" y="-497.56" font-family="Times,serif" font-weight="bold" font-size="14.00" fill="#0f172a">renderer</text>
<text xml:space="preserve" text-anchor="start" x="1444.48" y="-476.36" font-family="Times,serif" font-size="10.00" fill="#0f172a">packages/systems/renderer</text>
<text xml:space="preserve" text-anchor="start" x="1479.32" y="-458.36" font-family="Times,serif" font-size="10.00" fill="#0f172a">605 LOC</text>
</g>
<!-- _webgames_client&#45;&gt;_webgames_renderer -->
<g id="edge5" class="edge">
<title>_webgames_client&#45;&gt;_webgames_renderer</title>
<path fill="none" stroke="#2563eb" d="M1498.07,-596.45C1498.07,-588.5 1498.07,-580.41 1498.07,-572.38"/>
<polygon fill="#2563eb" stroke="#2563eb" points="1501.57,-572.62 1498.07,-562.62 1494.57,-572.62 1501.57,-572.62"/>
</g>
<!-- _webgames_script -->
<g id="node11" class="node">
<title>_webgames_script</title>
<ellipse fill="none" stroke="#c2410c" cx="1152.07" cy="-482.76" rx="137.16" ry="69.12"/>
<text xml:space="preserve" text-anchor="start" x="1134.96" y="-497.56" font-family="Times,serif" font-weight="bold" font-size="14.00" fill="#0f172a">script</text>
<text xml:space="preserve" text-anchor="start" x="1104.02" y="-476.36" font-family="Times,serif" font-size="10.00" fill="#0f172a">packages/systems/script</text>
<text xml:space="preserve" text-anchor="start" x="1133.32" y="-458.36" font-family="Times,serif" font-size="10.00" fill="#0f172a">404 LOC</text>
</g>
<!-- _webgames_client&#45;&gt;_webgames_script -->
<g id="edge6" class="edge">
<title>_webgames_client&#45;&gt;_webgames_script</title>
<path fill="none" stroke="#2563eb" d="M1391.91,-617.38C1347.86,-592.84 1296.98,-564.49 1253.45,-540.24"/>
<polygon fill="#2563eb" stroke="#2563eb" points="1255.18,-537.2 1244.74,-535.39 1251.78,-543.31 1255.18,-537.2"/>
</g>
<!-- _webgames_ui -->
<g id="node12" class="node">
<title>_webgames_ui</title>
<ellipse fill="none" stroke="#c2410c" cx="841.07" cy="-482.76" rx="117.72" ry="58.32"/>
<text xml:space="preserve" text-anchor="start" x="835.23" y="-497.56" font-family="Times,serif" font-weight="bold" font-size="14.00" fill="#0f172a">ui</text>
<text xml:space="preserve" text-anchor="start" x="800.24" y="-476.36" font-family="Times,serif" font-size="10.00" fill="#0f172a">packages/systems/ui</text>
<text xml:space="preserve" text-anchor="start" x="822.32" y="-458.36" font-family="Times,serif" font-size="10.00" fill="#0f172a">216 LOC</text>
</g>
<!-- _webgames_client&#45;&gt;_webgames_ui -->
<g id="edge7" class="edge">
<title>_webgames_client&#45;&gt;_webgames_ui</title>
<path fill="none" stroke="#2563eb" d="M1348.87,-649.79C1250.13,-630.08 1118.6,-599.93 1006.07,-560.88 981.61,-552.39 955.91,-541.44 932.28,-530.48"/>
<polygon fill="#2563eb" stroke="#2563eb" points="933.84,-527.34 923.3,-526.26 930.86,-533.68 933.84,-527.34"/>
</g>
<!-- _webgames_server -->
<g id="node2" class="node">
<title>_webgames_server</title>
<ellipse fill="none" stroke="#1d4ed8" cx="556.07" cy="-677.52" rx="94.32" ry="48.65"/>
<text xml:space="preserve" text-anchor="start" x="537.42" y="-692.32" font-family="Times,serif" font-weight="bold" font-size="14.00" fill="#0f172a">server</text>
<text xml:space="preserve" text-anchor="start" x="533.3" y="-671.12" font-family="Times,serif" font-size="10.00" fill="#0f172a">apps/server</text>
<text xml:space="preserve" text-anchor="start" x="539.82" y="-653.12" font-family="Times,serif" font-size="10.00" fill="#0f172a">68 LOC</text>
</g>
<!-- _webgames_server&#45;&gt;_webgames_engine -->
<g id="edge8" class="edge">
<title>_webgames_server&#45;&gt;_webgames_engine</title>
<path fill="none" stroke="#2563eb" d="M485.69,-644.67C452.36,-625.53 415.81,-597.68 397.07,-560.88 365.56,-499 362.86,-465.07 397.07,-404.64 412.39,-377.58 432.08,-387.15 457.07,-368.64 548.02,-301.29 552.77,-262.05 646.07,-198 677,-176.76 712.36,-156.95 745.88,-139.92"/>
<polygon fill="#2563eb" stroke="#2563eb" points="747.03,-143.26 754.39,-135.64 743.89,-137 747.03,-143.26"/>
</g>
<!-- _webgames_parser -->
<g id="node4" class="node">
<title>_webgames_parser</title>
<ellipse fill="none" stroke="#047857" cx="340.07" cy="-283.32" rx="108" ry="52.92"/>
<text xml:space="preserve" text-anchor="start" x="320.63" y="-298.12" font-family="Times,serif" font-weight="bold" font-size="14.00" fill="#0f172a">parser</text>
<text xml:space="preserve" text-anchor="start" x="308.14" y="-276.92" font-family="Times,serif" font-size="10.00" fill="#0f172a">packages/parser</text>
<text xml:space="preserve" text-anchor="start" x="321.32" y="-258.92" font-family="Times,serif" font-size="10.00" fill="#0f172a">145 LOC</text>
</g>
<!-- _webgames_server&#45;&gt;_webgames_parser -->
<g id="edge11" class="edge">
<title>_webgames_server&#45;&gt;_webgames_parser</title>
<path fill="none" stroke="#2563eb" d="M478.38,-649.75C437.3,-631.37 390.12,-602.65 364.07,-560.88 324,-496.63 324.07,-407.06 330.11,-347.46"/>
<polygon fill="#2563eb" stroke="#2563eb" points="333.55,-348.16 331.18,-337.83 326.6,-347.39 333.55,-348.16"/>
</g>
<!-- _webgames_server&#45;&gt;_webgames_game -->
<g id="edge9" class="edge">
<title>_webgames_server&#45;&gt;_webgames_game</title>
<path fill="none" stroke="#2563eb" d="M645.7,-662.18C752.96,-643.24 923.69,-606.84 968.07,-560.88 1017.71,-509.47 980.86,-471.51 1006.07,-404.64 1009.64,-395.16 1013.79,-385.48 1018.22,-375.92"/>
<polygon fill="#2563eb" stroke="#2563eb" points="1021.33,-377.52 1022.47,-366.98 1015.01,-374.51 1021.33,-377.52"/>
</g>
<!-- _webgames_network_server -->
<g id="node8" class="node">
<title>_webgames_network_server</title>
<ellipse fill="none" stroke="#c2410c" cx="107.07" cy="-283.32" rx="107.07" ry="51.12"/>
<text xml:space="preserve" text-anchor="start" x="61.2" y="-298.12" font-family="Times,serif" font-weight="bold" font-size="14.00" fill="#0f172a">network&#45;server</text>
<text xml:space="preserve" text-anchor="start" x="39.87" y="-276.92" font-family="Times,serif" font-size="10.00" fill="#0f172a">packages/systems/network&#45;server</text>
<text xml:space="preserve" text-anchor="start" x="88.32" y="-258.92" font-family="Times,serif" font-size="10.00" fill="#0f172a">126 LOC</text>
</g>
<!-- _webgames_server&#45;&gt;_webgames_network_server -->
<g id="edge10" class="edge">
<title>_webgames_server&#45;&gt;_webgames_network_server</title>
<path fill="none" stroke="#2563eb" d="M479.43,-648.71C431.37,-628.91 369.87,-599.06 323.07,-560.88 246.1,-498.1 179.57,-403.12 141.39,-342.42"/>
<polygon fill="#2563eb" stroke="#2563eb" points="144.57,-340.9 136.31,-334.26 138.63,-344.6 144.57,-340.9"/>
</g>
<!-- _webgames_physics -->
<g id="node9" class="node">
<title>_webgames_physics</title>
<ellipse fill="none" stroke="#c2410c" cx="556.07" cy="-482.76" rx="149.76" ry="75.96"/>
<text xml:space="preserve" text-anchor="start" x="534.28" y="-497.56" font-family="Times,serif" font-weight="bold" font-size="14.00" fill="#0f172a">physics</text>
<text xml:space="preserve" text-anchor="start" x="504.13" y="-476.36" font-family="Times,serif" font-size="10.00" fill="#0f172a">packages/systems/physics</text>
<text xml:space="preserve" text-anchor="start" x="537.32" y="-458.36" font-family="Times,serif" font-size="10.00" fill="#0f172a">558 LOC</text>
</g>
<!-- _webgames_server&#45;&gt;_webgames_physics -->
<g id="edge12" class="edge">
<title>_webgames_server&#45;&gt;_webgames_physics</title>
<path fill="none" stroke="#2563eb" d="M556.07,-628.38C556.07,-610.77 556.07,-590.27 556.07,-570.33"/>
<polygon fill="#2563eb" stroke="#2563eb" points="559.57,-570.53 556.07,-560.53 552.57,-570.53 559.57,-570.53"/>
</g>
<!-- _webgames_server&#45;&gt;_webgames_script -->
<g id="edge13" class="edge">
<title>_webgames_server&#45;&gt;_webgames_script</title>
<path fill="none" stroke="#2563eb" d="M643.95,-659.6C735,-640.72 880.57,-606.68 1001.07,-560.88 1017.36,-554.69 1034.19,-547.23 1050.45,-539.43"/>
<polygon fill="#2563eb" stroke="#2563eb" points="1051.67,-542.73 1059.12,-535.2 1048.6,-536.44 1051.67,-542.73"/>
</g>
<!-- _webgames_server&#45;&gt;_webgames_ui -->
<g id="edge14" class="edge">
<title>_webgames_server&#45;&gt;_webgames_ui</title>
<path fill="none" stroke="#2563eb" d="M612.72,-638.21C655.71,-609.13 715.32,-568.81 762.86,-536.66"/>
<polygon fill="#2563eb" stroke="#2563eb" points="764.62,-539.69 770.95,-531.19 760.7,-533.89 764.62,-539.69"/>
</g>
<!-- _webgames_parser&#45;&gt;_webgames_engine -->
<g id="edge15" class="edge">
<title>_webgames_parser&#45;&gt;_webgames_engine</title>
<path fill="none" stroke="#059669" d="M396.33,-237.65C416.24,-223.45 439.35,-208.68 462.07,-198 542.54,-160.19 637.77,-132.41 716.5,-113.54"/>
<polygon fill="#059669" stroke="#059669" points="717.1,-116.99 726.03,-111.28 715.49,-110.18 717.1,-116.99"/>
</g>
<!-- _webgames_game&#45;&gt;_webgames_engine -->
<g id="edge16" class="edge">
<title>_webgames_game&#45;&gt;_webgames_engine</title>
<path fill="none" stroke="#d97706" d="M995.73,-206.59C981.69,-192.1 966.96,-176.88 952.79,-162.26"/>
<polygon fill="#d97706" stroke="#d97706" points="955.51,-160.03 946.04,-155.29 950.48,-164.9 955.51,-160.03"/>
</g>
<!-- _webgames_input&#45;&gt;_webgames_engine -->
<g id="edge17" class="edge">
<title>_webgames_input&#45;&gt;_webgames_engine</title>
<path fill="none" stroke="#d97706" d="M1342.5,-240.44C1323.14,-225.38 1300.02,-209.34 1277.07,-198 1200.57,-160.2 1109.62,-132.67 1033.61,-113.94"/>
<polygon fill="#d97706" stroke="#d97706" points="1034.52,-110.56 1023.97,-111.59 1032.86,-117.36 1034.52,-110.56"/>
</g>
<!-- _webgames_network_client&#45;&gt;_webgames_engine -->
<g id="edge18" class="edge">
<title>_webgames_network_client&#45;&gt;_webgames_engine</title>
<path fill="none" stroke="#d97706" d="M1569.79,-239.73C1549.33,-224.41 1524.71,-208.36 1500.07,-198 1353.03,-136.18 1172.79,-107.19 1043.72,-93.66"/>
<polygon fill="#d97706" stroke="#d97706" points="1044.37,-90.21 1034.07,-92.67 1043.66,-97.17 1044.37,-90.21"/>
</g>
<!-- _webgames_network_server&#45;&gt;_webgames_engine -->
<g id="edge19" class="edge">
<title>_webgames_network_server&#45;&gt;_webgames_engine</title>
<path fill="none" stroke="#d97706" d="M157.7,-237.85C176.99,-223.05 199.93,-207.85 223.07,-198 378.58,-131.83 570.46,-103.4 705.68,-91.19"/>
<polygon fill="#d97706" stroke="#d97706" points="705.79,-94.7 715.44,-90.33 705.17,-87.72 705.79,-94.7"/>
</g>
<!-- _webgames_physics&#45;&gt;_webgames_engine -->
<g id="edge20" class="edge">
<title>_webgames_physics&#45;&gt;_webgames_engine</title>
<path fill="none" stroke="#d97706" d="M611.63,-412.13C666.53,-343.34 750.5,-238.1 808.83,-165"/>
<polygon fill="#d97706" stroke="#d97706" points="811.37,-167.44 814.87,-157.44 805.9,-163.07 811.37,-167.44"/>
</g>
<!-- _webgames_physics&#45;&gt;_webgames_game -->
<g id="edge21" class="edge">
<title>_webgames_physics&#45;&gt;_webgames_game</title>
<path fill="none" stroke="#d97706" d="M661.03,-428.23C678.57,-419.95 696.71,-411.78 714.07,-404.64 779.2,-377.83 852.72,-352.18 915.89,-331.51"/>
<polygon fill="#d97706" stroke="#d97706" points="916.88,-334.87 925.31,-328.44 914.71,-328.21 916.88,-334.87"/>
</g>
<!-- _webgames_renderer&#45;&gt;_webgames_engine -->
<g id="edge22" class="edge">
<title>_webgames_renderer&#45;&gt;_webgames_engine</title>
<path fill="none" stroke="#d97706" d="M1386.8,-428.59C1337.94,-404.31 1289.81,-378.74 1282.07,-368.64 1234.82,-306.96 1296.61,-255.24 1244.07,-198 1192.45,-141.77 1113.92,-112.6 1042.56,-97.56"/>
<polygon fill="#d97706" stroke="#d97706" points="1043.61,-94.2 1033.12,-95.65 1042.23,-101.06 1043.61,-94.2"/>
</g>
<!-- _webgames_renderer&#45;&gt;_webgames_game -->
<g id="edge23" class="edge">
<title>_webgames_renderer&#45;&gt;_webgames_game</title>
<path fill="none" stroke="#d97706" d="M1385.46,-429.41C1367.3,-421.06 1348.69,-412.57 1331.07,-404.64 1294.78,-388.3 1285.32,-385.08 1249.07,-368.64 1233.45,-361.56 1217.12,-354.05 1200.93,-346.54"/>
<polygon fill="#d97706" stroke="#d97706" points="1202.8,-343.55 1192.25,-342.51 1199.85,-349.9 1202.8,-343.55"/>
</g>
<!-- _webgames_script&#45;&gt;_webgames_engine -->
<g id="edge24" class="edge">
<title>_webgames_script&#45;&gt;_webgames_engine</title>
<path fill="none" stroke="#d97706" d="M1047.85,-437.5C977.35,-407.34 896.59,-372.23 894.07,-368.64 872.65,-338.12 869.77,-245.49 871.08,-173.7"/>
<polygon fill="#d97706" stroke="#d97706" points="874.57,-173.96 871.29,-163.89 867.58,-173.81 874.57,-173.96"/>
</g>
<!-- _webgames_ui&#45;&gt;_webgames_engine -->
<g id="edge25" class="edge">
<title>_webgames_ui&#45;&gt;_webgames_engine</title>
<path fill="none" stroke="#d97706" d="M844.29,-424.08C847.69,-366.7 853.6,-276.17 861.07,-198 861.83,-190.02 862.69,-181.73 863.6,-173.43"/>
<polygon fill="#d97706" stroke="#d97706" points="867.07,-173.96 864.7,-163.63 860.11,-173.18 867.07,-173.96"/>
</g>
</g>
</svg>
