<?xml version="1.0" encoding="UTF-8" standalone="no"?>
<!DOCTYPE svg PUBLIC "-//W3C//DTD SVG 1.1//EN"
 "http://www.w3.org/Graphics/SVG/1.1/DTD/svg11.dtd">
<!-- Generated by graphviz version 14.1.3 (20260303.0454)
 -->
<!-- Title: dependencies Pages: 1 -->
<svg width="1512pt" height="1428pt"
 viewBox="0.00 0.00 1512.00 1428.00" xmlns="http://www.w3.org/2000/svg" xmlns:xlink="http://www.w3.org/1999/xlink">
<g id="graph0" class="graph" transform="scale(1 1) rotate(0) translate(21.6 1405.96)">
<title>dependencies</title>
<polygon fill="white" stroke="none" points="-21.6,21.6 -21.6,-1405.96 1490.28,-1405.96 1490.28,21.6 -21.6,21.6"/>
<!-- _webgames_client -->
<g id="node1" class="node">
<title>_webgames_client</title>
<path fill="#dbeafe" stroke="#1d4ed8" stroke-width="2" d="M304.8,-439.24C304.8,-439.24 12,-439.24 12,-439.24 6,-439.24 0,-433.24 0,-427.24 0,-427.24 0,-289.24 0,-289.24 0,-283.24 6,-277.24 12,-277.24 12,-277.24 304.8,-277.24 304.8,-277.24 310.8,-277.24 316.8,-283.24 316.8,-289.24 316.8,-289.24 316.8,-427.24 316.8,-427.24 316.8,-433.24 310.8,-439.24 304.8,-439.24"/>
<text xml:space="preserve" text-anchor="start" x="142.73" y="-373.64" font-family="Helvetica,sans-Serif" font-weight="bold" font-size="12.00" fill="#0f172a">client</text>
<text xml:space="preserve" text-anchor="start" x="134.5" y="-353.04" font-family="Helvetica,sans-Serif" font-size="10.00" fill="#0f172a">apps/client</text>
<text xml:space="preserve" text-anchor="start" x="138.39" y="-335.04" font-family="Helvetica,sans-Serif" font-size="10.00" fill="#0f172a">678 LOC</text>
</g>
<!-- _webgames_engine -->
<g id="node3" class="node">
<title>_webgames_engine</title>
<path fill="#d1fae5" stroke="#047857" stroke-width="2" d="M1456.68,-744.24C1456.68,-744.24 1163.16,-744.24 1163.16,-744.24 1157.16,-744.24 1151.16,-738.24 1151.16,-732.24 1151.16,-732.24 1151.16,-594.24 1151.16,-594.24 1151.16,-588.24 1157.16,-582.24 1163.16,-582.24 1163.16,-582.24 1456.68,-582.24 1456.68,-582.24 1462.68,-582.24 1468.68,-588.24 1468.68,-594.24 1468.68,-594.24 1468.68,-732.24 1468.68,-732.24 1468.68,-738.24 1462.68,-744.24 1456.68,-744.24"/>
<text xml:space="preserve" text-anchor="start" x="1290.58" y="-678.64" font-family="Helvetica,sans-Serif" font-weight="bold" font-size="12.00" fill="#0f172a">engine</text>
<text xml:space="preserve" text-anchor="start" x="1272.11" y="-658.04" font-family="Helvetica,sans-Serif" font-size="10.00" fill="#0f172a">packages/engine</text>
<text xml:space="preserve" text-anchor="start" x="1289.91" y="-640.04" font-family="Helvetica,sans-Serif" font-size="10.00" fill="#0f172a">679 LOC</text>
</g>
<!-- _webgames_client&#45;&gt;_webgames_engine -->
<g id="edge1" class="edge">
<title>_webgames_client&#45;&gt;_webgames_engine</title>
<path fill="none" stroke="#2563eb" stroke-width="1.6" d="M280.66,-276.27C312.37,-258.31 347.35,-241.35 381.8,-230.24 530.98,-182.11 953.73,-108.38 1086.16,-192.24 1217.65,-275.5 1273.01,-459.6 1295.19,-571.38"/>
<polygon fill="#2563eb" stroke="#2563eb" stroke-width="1.6" points="1292.38,-571.6 1296.64,-578.92 1297.87,-570.54 1292.38,-571.6"/>
</g>
<!-- _webgames_game -->
<g id="node5" class="node">
<title>_webgames_game</title>
<path fill="#ffedd5" stroke="#c2410c" stroke-width="2" d="M1074.16,-608.56C1074.16,-608.56 765.52,-608.56 765.52,-608.56 759.52,-608.56 753.52,-602.56 753.52,-596.56 753.52,-596.56 753.52,-449.92 753.52,-449.92 753.52,-443.92 759.52,-437.92 765.52,-437.92 765.52,-437.92 1074.16,-437.92 1074.16,-437.92 1080.16,-437.92 1086.16,-443.92 1086.16,-449.92 1086.16,-449.92 1086.16,-596.56 1086.16,-596.56 1086.16,-602.56 1080.16,-608.56 1074.16,-608.56"/>
<text xml:space="preserve" text-anchor="start" x="904.17" y="-538.64" font-family="Helvetica,sans-Serif" font-weight="bold" font-size="12.00" fill="#0f172a">game</text>
<text xml:space="preserve" text-anchor="start" x="864.82" y="-518.04" font-family="Helvetica,sans-Serif" font-size="10.00" fill="#0f172a">packages/systems/game</text>
<text xml:space="preserve" text-anchor="start" x="899.83" y="-500.04" font-family="Helvetica,sans-Serif" font-size="10.00" fill="#0f172a">796 LOC</text>
</g>
<!-- _webgames_client&#45;&gt;_webgames_game -->
<g id="edge2" class="edge">
<title>_webgames_client&#45;&gt;_webgames_game</title>
<path fill="none" stroke="#2563eb" stroke-width="1.6" d="M317.52,-432.83C338.8,-440.99 360.61,-448.43 381.8,-454.24 499.7,-486.57 636.41,-503.86 742.4,-513.05"/>
<polygon fill="#2563eb" stroke="#2563eb" stroke-width="1.6" points="741.93,-515.82 750.14,-513.71 742.41,-510.24 741.93,-515.82"/>
</g>
<!-- _webgames_input -->
<g id="node6" class="node">
<title>_webgames_input</title>
<path fill="#ffedd5" stroke="#c2410c" stroke-width="2" d="M1008.28,-307.84C1008.28,-307.84 831.4,-307.84 831.4,-307.84 825.4,-307.84 819.4,-301.84 819.4,-295.84 819.4,-295.84 819.4,-222.64 819.4,-222.64 819.4,-216.64 825.4,-210.64 831.4,-210.64 831.4,-210.64 1008.28,-210.64 1008.28,-210.64 1014.28,-210.64 1020.28,-216.64 1020.28,-222.64 1020.28,-222.64 1020.28,-295.84 1020.28,-295.84 1020.28,-301.84 1014.28,-307.84 1008.28,-307.84"/>
<text xml:space="preserve" text-anchor="start" x="905.18" y="-274.64" font-family="Helvetica,sans-Serif" font-weight="bold" font-size="12.00" fill="#0f172a">input</text>
<text xml:space="preserve" text-anchor="start" x="866.48" y="-254.04" font-family="Helvetica,sans-Serif" font-size="10.00" fill="#0f172a">packages/systems/input</text>
<text xml:space="preserve" text-anchor="start" x="902.61" y="-236.04" font-family="Helvetica,sans-Serif" font-size="10.00" fill="#0f172a">98 LOC</text>
</g>
<!-- _webgames_client&#45;&gt;_webgames_input -->
<g id="edge3" class="edge">
<title>_webgames_client&#45;&gt;_webgames_input</title>
<path fill="none" stroke="#2563eb" stroke-width="1.6" d="M317.53,-280.95C338.72,-273.28 360.5,-266.7 381.8,-262.24 526.93,-231.83 699,-238.05 808.53,-247.12"/>
<polygon fill="#2563eb" stroke="#2563eb" stroke-width="1.6" points="807.98,-249.88 816.19,-247.77 808.45,-244.3 807.98,-249.88"/>
</g>
<!-- _webgames_network_client -->
<g id="node7" class="node">
<title>_webgames_network_client</title>
<path fill="#ffedd5" stroke="#c2410c" stroke-width="2" d="M1007.56,-96.48C1007.56,-96.48 832.12,-96.48 832.12,-96.48 826.12,-96.48 820.12,-90.48 820.12,-84.48 820.12,-84.48 820.12,-12 820.12,-12 820.12,-6 826.12,0 832.12,0 832.12,0 1007.56,0 1007.56,0 1013.56,0 1019.56,-6 1019.56,-12 1019.56,-12 1019.56,-84.48 1019.56,-84.48 1019.56,-90.48 1013.56,-96.48 1007.56,-96.48"/>
<text xml:space="preserve" text-anchor="start" x="879.17" y="-63.64" font-family="Helvetica,sans-Serif" font-weight="bold" font-size="12.00" fill="#0f172a">network&#45;client</text>
<text xml:space="preserve" text-anchor="start" x="846.48" y="-43.04" font-family="Helvetica,sans-Serif" font-size="10.00" fill="#0f172a">packages/systems/network&#45;client</text>
<text xml:space="preserve" text-anchor="start" x="902.61" y="-25.04" font-family="Helvetica,sans-Serif" font-size="10.00" fill="#0f172a">95 LOC</text>
</g>
<!-- _webgames_client&#45;&gt;_webgames_network_client -->
<g id="edge4" class="edge">
<title>_webgames_client&#45;&gt;_webgames_network_client</title>
<path fill="none" stroke="#2563eb" stroke-width="1.6" d="M214.33,-276.25C254.29,-223.55 313.27,-158.56 381.8,-123.24 517.01,-53.56 695.49,-41.96 808.75,-42.88"/>
<polygon fill="#2563eb" stroke="#2563eb" stroke-width="1.6" points="808.7,-45.68 816.74,-42.98 808.77,-40.08 808.7,-45.68"/>
</g>
<!-- _webgames_renderer -->
<g id="node10" class="node">
<title>_webgames_renderer</title>
<path fill="#ffedd5" stroke="#c2410c" stroke-width="2" d="M676.52,-436.36C676.52,-436.36 393.8,-436.36 393.8,-436.36 387.8,-436.36 381.8,-430.36 381.8,-424.36 381.8,-424.36 381.8,-292.12 381.8,-292.12 381.8,-286.12 387.8,-280.12 393.8,-280.12 393.8,-280.12 676.52,-280.12 676.52,-280.12 682.52,-280.12 688.52,-286.12 688.52,-292.12 688.52,-292.12 688.52,-424.36 688.52,-424.36 688.52,-430.36 682.52,-436.36 676.52,-436.36"/>
<text xml:space="preserve" text-anchor="start" x="510.81" y="-373.64" font-family="Helvetica,sans-Serif" font-weight="bold" font-size="12.00" fill="#0f172a">renderer</text>
<text xml:space="preserve" text-anchor="start" x="473.74" y="-353.04" font-family="Helvetica,sans-Serif" font-size="10.00" fill="#0f172a">packages/systems/renderer</text>
<text xml:space="preserve" text-anchor="start" x="515.15" y="-335.04" font-family="Helvetica,sans-Serif" font-size="10.00" fill="#0f172a">605 LOC</text>
</g>
<!-- _webgames_client&#45;&gt;_webgames_renderer -->
<g id="edge5" class="edge">
<title>_webgames_client&#45;&gt;_webgames_renderer</title>
<path fill="none" stroke="#2563eb" stroke-width="1.6" d="M317.79,-358.24C335.24,-358.24 353.03,-358.24 370.55,-358.24"/>
<polygon fill="#2563eb" stroke="#2563eb" stroke-width="1.6" points="370.4,-361.04 378.4,-358.24 370.4,-355.44 370.4,-361.04"/>
</g>
<!-- _webgames_script -->
<g id="node11" class="node">
<title>_webgames_script</title>
<path fill="#ffedd5" stroke="#c2410c" stroke-width="2" d="M660.32,-836.36C660.32,-836.36 410,-836.36 410,-836.36 404,-836.36 398,-830.36 398,-824.36 398,-824.36 398,-710.12 398,-710.12 398,-704.12 404,-698.12 410,-698.12 410,-698.12 660.32,-698.12 660.32,-698.12 666.32,-698.12 672.32,-704.12 672.32,-710.12 672.32,-710.12 672.32,-824.36 672.32,-824.36 672.32,-830.36 666.32,-836.36 660.32,-836.36"/>
<text xml:space="preserve" text-anchor="start" x="518.82" y="-782.64" font-family="Helvetica,sans-Serif" font-weight="bold" font-size="12.00" fill="#0f172a">script</text>
<text xml:space="preserve" text-anchor="start" x="480.7" y="-762.04" font-family="Helvetica,sans-Serif" font-size="10.00" fill="#0f172a">packages/systems/script</text>
<text xml:space="preserve" text-anchor="start" x="515.15" y="-744.04" font-family="Helvetica,sans-Serif" font-size="10.00" fill="#0f172a">404 LOC</text>
</g>
<!-- _webgames_client&#45;&gt;_webgames_script -->
<g id="edge6" class="edge">
<title>_webgames_client&#45;&gt;_webgames_script</title>
<path fill="none" stroke="#2563eb" stroke-width="1.6" d="M202.02,-439.91C241.58,-509.98 305.72,-610.41 381.8,-680.24 385.8,-683.91 389.98,-687.49 394.29,-690.97"/>
<polygon fill="#2563eb" stroke="#2563eb" stroke-width="1.6" points="392.26,-692.94 400.29,-695.65 395.7,-688.52 392.26,-692.94"/>
</g>
<!-- _webgames_ui -->
<g id="node12" class="node">
<title>_webgames_ui</title>
<path fill="#ffedd5" stroke="#c2410c" stroke-width="2" d="M640.88,-662.56C640.88,-662.56 429.44,-662.56 429.44,-662.56 423.44,-662.56 417.44,-656.56 417.44,-650.56 417.44,-650.56 417.44,-557.92 417.44,-557.92 417.44,-551.92 423.44,-545.92 429.44,-545.92 429.44,-545.92 640.88,-545.92 640.88,-545.92 646.88,-545.92 652.88,-551.92 652.88,-557.92 652.88,-557.92 652.88,-650.56 652.88,-650.56 652.88,-656.56 646.88,-662.56 640.88,-662.56"/>
<text xml:space="preserve" text-anchor="start" x="529.83" y="-619.64" font-family="Helvetica,sans-Serif" font-weight="bold" font-size="12.00" fill="#0f172a">ui</text>
<text xml:space="preserve" text-anchor="start" x="488.75" y="-599.04" font-family="Helvetica,sans-Serif" font-size="10.00" fill="#0f172a">packages/systems/ui</text>
<text xml:space="preserve" text-anchor="start" x="515.15" y="-581.04" font-family="Helvetica,sans-Serif" font-size="10.00" fill="#0f172a">216 LOC</text>
</g>
<!-- _webgames_client&#45;&gt;_webgames_ui -->
<g id="edge7" class="edge">
<title>_webgames_client&#45;&gt;_webgames_ui</title>
<path fill="none" stroke="#2563eb" stroke-width="1.6" d="M267.07,-440.08C302.94,-466.29 343.52,-494.83 381.8,-519.24 392.59,-526.12 403.96,-533.04 415.43,-539.81"/>
<polygon fill="#2563eb" stroke="#2563eb" stroke-width="1.6" points="413.81,-542.1 422.13,-543.72 416.64,-537.27 413.81,-542.1"/>
</g>
<!-- _webgames_server -->
<g id="node2" class="node">
<title>_webgames_server</title>
<path fill="#dbeafe" stroke="#1d4ed8" stroke-width="2" d="M240.72,-1067.6C240.72,-1067.6 76.08,-1067.6 76.08,-1067.6 70.08,-1067.6 64.08,-1061.6 64.08,-1055.6 64.08,-1055.6 64.08,-988.88 64.08,-988.88 64.08,-982.88 70.08,-976.88 76.08,-976.88 76.08,-976.88 240.72,-976.88 240.72,-976.88 246.72,-976.88 252.72,-982.88 252.72,-988.88 252.72,-988.88 252.72,-1055.6 252.72,-1055.6 252.72,-1061.6 246.72,-1067.6 240.72,-1067.6"/>
<text xml:space="preserve" text-anchor="start" x="140.38" y="-1037.64" font-family="Helvetica,sans-Serif" font-weight="bold" font-size="12.00" fill="#0f172a">server</text>
<text xml:space="preserve" text-anchor="start" x="132.28" y="-1017.04" font-family="Helvetica,sans-Serif" font-size="10.00" fill="#0f172a">apps/server</text>
<text xml:space="preserve" text-anchor="start" x="141.17" y="-999.04" font-family="Helvetica,sans-Serif" font-size="10.00" fill="#0f172a">68 LOC</text>
</g>
<!-- _webgames_server&#45;&gt;_webgames_engine -->
<g id="edge8" class="edge">
<title>_webgames_server&#45;&gt;_webgames_engine</title>
<path fill="none" stroke="#2563eb" stroke-width="1.6" d="M218.76,-1068.35C261.47,-1098.48 321.89,-1135.12 381.8,-1151.24 446.7,-1168.7 1077.18,-1147.12 1086.16,-1141.24 1218.3,-1054.68 1273.51,-867.66 1295.46,-754.92"/>
<polygon fill="#2563eb" stroke="#2563eb" stroke-width="1.6" points="1298.17,-755.68 1296.91,-747.3 1292.67,-754.64 1298.17,-755.68"/>
</g>
<!-- _webgames_parser -->
<g id="node4" class="node">
<title>_webgames_parser</title>
<path fill="#d1fae5" stroke="#047857" stroke-width="2" d="M1015.84,-1123.16C1015.84,-1123.16 823.84,-1123.16 823.84,-1123.16 817.84,-1123.16 811.84,-1117.16 811.84,-1111.16 811.84,-1111.16 811.84,-1029.32 811.84,-1029.32 811.84,-1023.32 817.84,-1017.32 823.84,-1017.32 823.84,-1017.32 1015.84,-1017.32 1015.84,-1017.32 1021.84,-1017.32 1027.84,-1023.32 1027.84,-1029.32 1027.84,-1029.32 1027.84,-1111.16 1027.84,-1111.16 1027.84,-1117.16 1021.84,-1123.16 1015.84,-1123.16"/>
<text xml:space="preserve" text-anchor="start" x="901.49" y="-1085.64" font-family="Helvetica,sans-Serif" font-weight="bold" font-size="12.00" fill="#0f172a">parser</text>
<text xml:space="preserve" text-anchor="start" x="882.87" y="-1065.04" font-family="Helvetica,sans-Serif" font-size="10.00" fill="#0f172a">packages/parser</text>
<text xml:space="preserve" text-anchor="start" x="899.83" y="-1047.04" font-family="Helvetica,sans-Serif" font-size="10.00" fill="#0f172a">145 LOC</text>
</g>
<!-- _webgames_server&#45;&gt;_webgames_parser -->
<g id="edge11" class="edge">
<title>_webgames_server&#45;&gt;_webgames_parser</title>
<path fill="none" stroke="#2563eb" stroke-width="1.6" d="M246.34,-1068.53C286.39,-1087.33 335.27,-1106.81 381.8,-1116.24 524.21,-1145.1 691.44,-1122.03 800.99,-1099.4"/>
<polygon fill="#2563eb" stroke="#2563eb" stroke-width="1.6" points="801.45,-1102.17 808.71,-1097.78 800.3,-1096.68 801.45,-1102.17"/>
</g>
<!-- _webgames_server&#45;&gt;_webgames_game -->
<g id="edge9" class="edge">
<title>_webgames_server&#45;&gt;_webgames_game</title>
<path fill="none" stroke="#2563eb" stroke-width="1.6" d="M253.61,-978.4C292.72,-961.26 338.9,-942.38 381.8,-928.24 514.99,-884.35 572.88,-933.57 688.52,-854.24 730.4,-825.51 724.55,-801.96 753.52,-760.24 786.18,-713.21 822.59,-661 852.9,-617.58"/>
<polygon fill="#2563eb" stroke="#2563eb" stroke-width="1.6" points="855.01,-619.45 857.3,-611.29 850.42,-616.24 855.01,-619.45"/>
</g>
<!-- _webgames_network_server -->
<g id="node8" class="node">
<title>_webgames_network_server</title>
<path fill="#ffedd5" stroke="#c2410c" stroke-width="2" d="M1012.96,-1384.36C1012.96,-1384.36 826.72,-1384.36 826.72,-1384.36 820.72,-1384.36 814.72,-1378.36 814.72,-1372.36 814.72,-1372.36 814.72,-1294.12 814.72,-1294.12 814.72,-1288.12 820.72,-1282.12 826.72,-1282.12 826.72,-1282.12 1012.96,-1282.12 1012.96,-1282.12 1018.96,-1282.12 1024.96,-1288.12 1024.96,-1294.12 1024.96,-1294.12 1024.96,-1372.36 1024.96,-1372.36 1024.96,-1378.36 1018.96,-1384.36 1012.96,-1384.36"/>
<text xml:space="preserve" text-anchor="start" x="876.82" y="-1348.64" font-family="Helvetica,sans-Serif" font-weight="bold" font-size="12.00" fill="#0f172a">network&#45;server</text>
<text xml:space="preserve" text-anchor="start" x="844.26" y="-1328.04" font-family="Helvetica,sans-Serif" font-size="10.00" fill="#0f172a">packages/systems/network&#45;server</text>
<text xml:space="preserve" text-anchor="start" x="899.83" y="-1310.04" font-family="Helvetica,sans-Serif" font-size="10.00" fill="#0f172a">126 LOC</text>
</g>
<!-- _webgames_server&#45;&gt;_webgames_network_server -->
<g id="edge10" class="edge">
<title>_webgames_server&#45;&gt;_webgames_network_server</title>
<path fill="none" stroke="#2563eb" stroke-width="1.6" d="M188.9,-1068.22C226.55,-1122.68 297.07,-1211.51 381.8,-1255.24 515.08,-1324.03 690.27,-1337.43 803.71,-1337.72"/>
<polygon fill="#2563eb" stroke="#2563eb" stroke-width="1.6" points="803.39,-1340.52 811.39,-1337.72 803.39,-1334.92 803.39,-1340.52"/>
</g>
<!-- _webgames_physics -->
<g id="node9" class="node">
<title>_webgames_physics</title>
<path fill="#ffedd5" stroke="#c2410c" stroke-width="2" d="M672.92,-1098.2C672.92,-1098.2 397.4,-1098.2 397.4,-1098.2 391.4,-1098.2 385.4,-1092.2 385.4,-1086.2 385.4,-1086.2 385.4,-958.28 385.4,-958.28 385.4,-952.28 391.4,-946.28 397.4,-946.28 397.4,-946.28 672.92,-946.28 672.92,-946.28 678.92,-946.28 684.92,-952.28 684.92,-958.28 684.92,-958.28 684.92,-1086.2 684.92,-1086.2 684.92,-1092.2 678.92,-1098.2 672.92,-1098.2"/>
<text xml:space="preserve" text-anchor="start" x="512.82" y="-1037.64" font-family="Helvetica,sans-Serif" font-weight="bold" font-size="12.00" fill="#0f172a">physics</text>
<text xml:space="preserve" text-anchor="start" x="475.97" y="-1017.04" font-family="Helvetica,sans-Serif" font-size="10.00" fill="#0f172a">packages/systems/physics</text>
<text xml:space="preserve" text-anchor="start" x="515.15" y="-999.04" font-family="Helvetica,sans-Serif" font-size="10.00" fill="#0f172a">558 LOC</text>
</g>
<!-- _webgames_server&#45;&gt;_webgames_physics -->
<g id="edge12" class="edge">
<title>_webgames_server&#45;&gt;_webgames_physics</title>
<path fill="none" stroke="#2563eb" stroke-width="1.6" d="M253.48,-1022.24C290.06,-1022.24 333.01,-1022.24 374.15,-1022.24"/>
<polygon fill="#2563eb" stroke="#2563eb" stroke-width="1.6" points="374.15,-1025.04 382.15,-1022.24 374.15,-1019.44 374.15,-1025.04"/>
</g>
<!-- _webgames_server&#45;&gt;_webgames_script -->
<g id="edge13" class="edge">
<title>_webgames_server&#45;&gt;_webgames_script</title>
<path fill="none" stroke="#2563eb" stroke-width="1.6" d="M221.98,-976.01C266.17,-943.74 327.03,-900.03 381.8,-863.24 391.83,-856.5 402.31,-849.61 412.87,-842.76"/>
<polygon fill="#2563eb" stroke="#2563eb" stroke-width="1.6" points="414.12,-845.29 419.32,-838.59 411.08,-840.58 414.12,-845.29"/>
</g>
<!-- _webgames_server&#45;&gt;_webgames_ui -->
<g id="edge14" class="edge">
<title>_webgames_server&#45;&gt;_webgames_ui</title>
<path fill="none" stroke="#2563eb" stroke-width="1.6" d="M179.61,-976.01C212.8,-904.59 284.95,-766.64 381.8,-680.24 389.91,-673.01 398.82,-666.29 408.16,-660.08"/>
<polygon fill="#2563eb" stroke="#2563eb" stroke-width="1.6" points="409.56,-662.5 414.79,-655.83 406.54,-657.78 409.56,-662.5"/>
</g>
<!-- _webgames_parser&#45;&gt;_webgames_engine -->
<g id="edge15" class="edge">
<title>_webgames_parser&#45;&gt;_webgames_engine</title>
<path fill="none" stroke="#059669" stroke-width="1.6" d="M971.97,-1016.61C1036.11,-949.35 1146.98,-833.08 1223.94,-752.36"/>
<polygon fill="#059669" stroke="#059669" stroke-width="1.6" points="1225.65,-754.63 1229.14,-746.9 1221.6,-750.76 1225.65,-754.63"/>
</g>
<!-- _webgames_game&#45;&gt;_webgames_engine -->
<g id="edge16" class="edge">
<title>_webgames_game&#45;&gt;_webgames_engine</title>
<path fill="none" stroke="#d97706" stroke-width="1.6" d="M1087.11,-583.22C1104.98,-589.67 1123.17,-596.23 1141.06,-602.68"/>
<polygon fill="#d97706" stroke="#d97706" stroke-width="1.6" points="1139.63,-605.14 1148.1,-605.22 1141.53,-599.88 1139.63,-605.14"/>
</g>
<!-- _webgames_input&#45;&gt;_webgames_engine -->
<g id="edge17" class="edge">
<title>_webgames_input&#45;&gt;_webgames_engine</title>
<path fill="none" stroke="#d97706" stroke-width="1.6" d="M1020.99,-303.57C1043.75,-316.16 1066.88,-331.17 1086.16,-348.24 1158.79,-412.53 1220.53,-504.87 1260.46,-572.97"/>
<polygon fill="#d97706" stroke="#d97706" stroke-width="1.6" points="1257.8,-573.97 1264.24,-579.47 1262.64,-571.15 1257.8,-573.97"/>
</g>
<!-- _webgames_network_client&#45;&gt;_webgames_engine -->
<g id="edge18" class="edge">
<title>_webgames_network_client&#45;&gt;_webgames_engine</title>
<path fill="none" stroke="#d97706" stroke-width="1.6" d="M1020.4,-78.92C1044.22,-89.93 1067.99,-104.43 1086.16,-123.24 1208.71,-250.11 1267.56,-453.85 1292.7,-571.45"/>
<polygon fill="#d97706" stroke="#d97706" stroke-width="1.6" points="1289.93,-571.88 1294.32,-579.13 1295.41,-570.73 1289.93,-571.88"/>
</g>
<!-- _webgames_network_server&#45;&gt;_webgames_engine -->
<g id="edge19" class="edge">
<title>_webgames_network_server&#45;&gt;_webgames_engine</title>
<path fill="none" stroke="#d97706" stroke-width="1.6" d="M1025.56,-1298.73C1047.76,-1287.6 1069.49,-1273.32 1086.16,-1255.24 1218.44,-1111.8 1274.41,-882.27 1296.27,-755.27"/>
<polygon fill="#d97706" stroke="#d97706" stroke-width="1.6" points="1299,-755.93 1297.57,-747.57 1293.48,-754.99 1299,-755.93"/>
</g>
<!-- _webgames_physics&#45;&gt;_webgames_engine -->
<g id="edge20" class="edge">
<title>_webgames_physics&#45;&gt;_webgames_engine</title>
<path fill="none" stroke="#d97706" stroke-width="1.6" d="M685.61,-952.81C816.1,-892.19 1005.32,-804.28 1141,-741.25"/>
<polygon fill="#d97706" stroke="#d97706" stroke-width="1.6" points="1141.99,-743.88 1148.07,-737.97 1139.64,-738.8 1141.99,-743.88"/>
</g>
<!-- _webgames_physics&#45;&gt;_webgames_game -->
<g id="edge21" class="edge">
<title>_webgames_physics&#45;&gt;_webgames_game</title>
<path fill="none" stroke="#d97706" stroke-width="1.6" d="M660.66,-945.29C670.57,-937.05 680.02,-928.34 688.52,-919.24 733.52,-871.08 816.8,-719.28 869.93,-618.24"/>
<polygon fill="#d97706" stroke="#d97706" stroke-width="1.6" points="872.29,-619.76 873.53,-611.37 867.33,-617.16 872.29,-619.76"/>
</g>
<!-- _webgames_renderer&#45;&gt;_webgames_engine -->
<g id="edge22" class="edge">
<title>_webgames_renderer&#45;&gt;_webgames_engine</title>
<path fill="none" stroke="#d97706" stroke-width="1.6" d="M689.35,-347.43C804.5,-345.75 962.93,-357.56 1086.16,-420.24 1154.21,-454.85 1211.83,-519.38 1251.41,-573.24"/>
<polygon fill="#d97706" stroke="#d97706" stroke-width="1.6" points="1248.97,-574.66 1255.94,-579.49 1253.51,-571.37 1248.97,-574.66"/>
</g>
<!-- _webgames_renderer&#45;&gt;_webgames_game -->
<g id="edge23" class="edge">
<title>_webgames_renderer&#45;&gt;_webgames_game</title>
<path fill="none" stroke="#d97706" stroke-width="1.6" d="M689.33,-424.28C707.05,-431.92 725.22,-439.76 743.21,-447.51"/>
<polygon fill="#d97706" stroke="#d97706" stroke-width="1.6" points="741.91,-450 750.37,-450.6 744.13,-444.86 741.91,-450"/>
</g>
<!-- _webgames_script&#45;&gt;_webgames_engine -->
<g id="edge24" class="edge">
<title>_webgames_script&#45;&gt;_webgames_engine</title>
<path fill="none" stroke="#d97706" stroke-width="1.6" d="M672.98,-748.83C803.47,-731.26 1000.35,-704.77 1140.44,-685.91"/>
<polygon fill="#d97706" stroke="#d97706" stroke-width="1.6" points="1140.47,-688.74 1148.03,-684.89 1139.73,-683.19 1140.47,-688.74"/>
</g>
<!-- _webgames_ui&#45;&gt;_webgames_engine -->
<g id="edge25" class="edge">
<title>_webgames_ui&#45;&gt;_webgames_engine</title>
<path fill="none" stroke="#d97706" stroke-width="1.6" d="M653.69,-616.88C686.02,-620.16 721.11,-623.52 753.52,-626.24 883.09,-637.11 1029.88,-646.77 1140,-653.5"/>
<polygon fill="#d97706" stroke="#d97706" stroke-width="1.6" points="1139.63,-656.28 1147.79,-653.97 1139.97,-650.69 1139.63,-656.28"/>
</g>
</g>
</svg>
